<?xml version="1.0" encoding="UTF-8"?>
<svg width="512" height="512" viewBox="0 0 512 512" fill="none" xmlns="http://www.w3.org/2000/svg">
  <rect width="512" height="512" rx="100" fill="#000000"/>
  <path d="M256 106C172.8 106 106 172.8 106 256C106 339.2 172.8 406 256 406C339.2 406 406 339.2 406 256C406 172.8 339.2 106 256 106ZM256 366C194.8 366 146 317.2 146 256C146 194.8 194.8 146 256 146C317.2 146 366 194.8 366 256C366 317.2 317.2 366 256 366Z" fill="#FF0000"/>
  <path d="M256 186C217.4 186 186 217.4 186 256C186 294.6 217.4 326 256 326C294.6 326 326 294.6 326 256C326 217.4 294.6 186 256 186ZM256 286C239.4 286 226 272.6 226 256C226 239.4 239.4 226 256 226C272.6 226 286 239.4 286 256C286 272.6 272.6 286 256 286Z" fill="#FF0000"/>
</svg>
