<?xml version="1.0" encoding="UTF-8"?>
<svg width="512" height="512" viewBox="0 0 512 512" fill="none" xmlns="http://www.w3.org/2000/svg">
  <rect width="512" height="512" rx="100" fill="#4CAF50"/>
  <path d="M256 156C201.3 156 156 201.3 156 256C156 310.7 201.3 356 256 356C310.7 356 356 310.7 356 256C356 201.3 310.7 156 256 156ZM256 306C229.5 306 206 284.5 206 256C206 227.5 227.5 206 256 206C284.5 206 306 227.5 306 256C306 284.5 284.5 306 256 306Z" fill="#FFFFFF"/>
  <circle cx="256" cy="256" r="30" fill="#FFFFFF"/>
</svg>
