<?xml version="1.0" encoding="UTF-8"?>
<svg width="512" height="512" viewBox="0 0 512 512" fill="none" xmlns="http://www.w3.org/2000/svg">
  <rect width="512" height="512" rx="100" fill="#5436DA"/>
  <path d="M256 146C194.8 146 146 194.8 146 256C146 317.2 194.8 366 256 366C317.2 366 366 317.2 366 256C366 194.8 317.2 146 256 146ZM256 326C217.4 326 186 294.6 186 256C186 217.4 217.4 186 256 186C294.6 186 326 217.4 326 256C326 294.6 294.6 326 256 326Z" fill="#FFFFFF"/>
  <circle cx="256" cy="256" r="40" fill="#FFFFFF"/>
</svg>
